<?xml version="1.0" encoding="UTF-8"?>
<svg version="1.1" xmlns="http://www.w3.org/2000/svg" width="502" height="407">
<path d="M0 0 C1.45742463 -0.08096803 2.91612807 -0.13917774 4.375 -0.1875 C5.18710938 -0.22230469 5.99921875 -0.25710937 6.8359375 -0.29296875 C7.55007812 -0.19628906 8.26421875 -0.09960938 9 0 C9.66 0.99 10.32 1.98 11 3 C13.17610667 4.22196109 13.17610667 4.22196109 15.625 5.1875 C16.44226563 5.53167969 17.25953125 5.87585938 18.1015625 6.23046875 C18.72804688 6.48441406 19.35453125 6.73835938 20 7 C20 7.66 20 8.32 20 9 C20.804375 9.226875 21.60875 9.45375 22.4375 9.6875 C27.91672214 11.70616079 33.01222117 14.42377618 37.59434414 18.05720425 C41.91234592 20.52045828 44.96112542 20.55749689 49.83424377 20.49879456 C50.71224528 20.50417911 51.59024678 20.50956366 52.49485439 20.51511139 C55.43118143 20.52836485 58.36666989 20.5132455 61.30297852 20.49829102 C63.41082645 20.50211486 65.51867179 20.50773445 67.62651062 20.51501465 C72.16419993 20.52696688 76.70165786 20.5264742 81.23935127 20.51642036 C88.4223423 20.50085295 95.60509604 20.51454402 102.78807068 20.53245544 C116.74964104 20.56328593 130.71113901 20.56477718 144.67273712 20.56280518 C162.4184416 20.56141292 180.16408985 20.57184865 197.90975326 20.6113829 C205.0414281 20.62627511 212.17289242 20.62607643 219.30457032 20.61390507 C223.75529393 20.6091746 228.20593799 20.6167446 232.65664864 20.62744904 C234.71042948 20.62984343 236.76422396 20.6271617 238.81798935 20.61884117 C253.2144852 20.56403668 266.60871461 20.69193818 279 29 C280.03060547 29.680625 280.03060547 29.680625 281.08203125 30.375 C286.04425621 33.86658468 290.56362092 37.96355691 294 43 C294 43.99 294 44.98 294 46 C294.66 46 295.32 46 296 46 C297.12752649 48.22791998 298.25208139 50.45725887 299.375 52.6875 C299.69210937 53.31333984 300.00921875 53.93917969 300.3359375 54.58398438 C305.5970403 65.05138681 307.39263803 74.62044302 307.375 86.3125 C307.37483887 87.31635742 307.37467773 88.32021484 307.37451172 89.35449219 C307.23746247 98.29010333 306.061225 106.4081625 301 114 C300.70351563 114.94101563 300.40703125 115.88203125 300.1015625 116.8515625 C295.09390541 131.1642278 282.00768958 140.57160584 269 147 C262.49862055 149.52925728 256.08427042 150.12684121 249.14672852 150.11352539 C248.17959175 150.11374443 248.17959175 150.11374443 247.19291687 150.1139679 C245.08821093 150.11327817 242.98359649 150.10553042 240.87890625 150.09765625 C239.40917509 150.09578872 237.93944331 150.0943664 236.4697113 150.09336853 C232.62120819 150.0895697 228.77274344 150.07976221 224.92425537 150.06866455 C220.9892224 150.0583935 217.05418317 150.05385876 213.11914062 150.04882812 C205.41274302 150.03813732 197.70637691 150.02109292 190 150 C190.01135986 150.77956055 190.02271973 151.55912109 190.03442383 152.36230469 C190.00004292 154.9967111 189.60042186 156.79681511 188.6875 159.25 C188.44386719 159.93578125 188.20023438 160.6215625 187.94921875 161.328125 C187 163 187 163 184 164 C183.9690625 165.0209375 183.9690625 165.0209375 183.9375 166.0625 C182.22986768 171.41308127 178.18816032 174.69113109 173.453125 177.5234375 C167.96199679 180.33398537 163.44558511 182.1374717 157.234375 182.09765625 C156.34492188 182.09443359 155.45546875 182.09121094 154.5390625 182.08789062 C153.61867187 182.07951172 152.69828125 182.07113281 151.75 182.0625 C150.81414062 182.05798828 149.87828125 182.05347656 148.9140625 182.04882812 C146.60930959 182.03706918 144.30468773 182.02063426 142 182 C142 181.34 142 180.68 142 180 C140.02 180 138.04 180 136 180 C135.67 179.01 135.34 178.02 135 177 C134.443125 176.87625 133.88625 176.7525 133.3125 176.625 C127.96486763 175.17969395 122.82946417 169.65200159 120 165 C118.10910085 160.11975406 117.01271463 155.12167099 116 150 C107.2104488 150.01495037 98.42154082 150.05687874 89.63229752 150.13209057 C85.54987674 150.166202 81.46782387 150.1914456 77.38525391 150.19555664 C73.4361687 150.19987401 69.48791118 150.22861655 65.53908539 150.27343178 C64.04186599 150.28629813 62.54454697 150.29075353 61.04727936 150.28615379 C47.43093701 150.25410296 35.93332177 153.22834169 26 163 C15.3219459 174.78268039 9.85523813 189.4491463 10.0390625 205.38671875 C11.17554029 223.5072258 17.17309805 238.70942049 31 251 C44.14762542 260.10220222 59.69185838 259.30246176 74.99707031 259.31884766 C76.99881896 259.32816017 79.00056376 259.33833078 81.00230408 259.34928894 C86.40430564 259.37645388 91.80628133 259.39169808 97.20833302 259.40471697 C102.86578634 259.42040693 108.52318728 259.44717831 114.18060303 259.4727478 C124.87934731 259.5194321 135.57810157 259.55622616 146.27689528 259.58942068 C158.46318946 259.62771539 170.64943087 259.6771062 182.83568048 259.72740483 C207.8904145 259.83057068 232.94518243 259.91988077 258 260 C257.96519531 258.81921875 257.93039062 257.6384375 257.89453125 256.421875 C257.86638768 254.86459758 257.83908813 253.30730475 257.8125 251.75 C257.77479492 250.58404297 257.77479492 250.58404297 257.73632812 249.39453125 C257.6914562 245.89452142 257.67212454 243.61584189 259.33984375 240.48339844 C261 239 261 239 263.75 238.515625 C267.72223068 239.10764015 270.63668596 240.67913852 274 242.75 C274.59039062 243.09804688 275.18078125 243.44609375 275.7890625 243.8046875 C278.6352121 245.49733153 281.39088092 247.26513618 284.1328125 249.125 C286.6767975 250.78864142 289.08508702 252.06640056 291.875 253.25 C292.65617187 253.58515625 293.43734375 253.9203125 294.2421875 254.265625 C295.11230469 254.62914062 295.11230469 254.62914062 296 255 C296 255.66 296 256.32 296 257 C296.928125 257.268125 297.85625 257.53625 298.8125 257.8125 C303.33043478 259.49565217 303.33043478 259.49565217 305 262 C305.4765625 264.3203125 305.4765625 264.3203125 305 267 C302.82845232 268.80860642 300.91071565 270.15477392 298.5 271.5625 C297.53586182 272.15272949 297.53586182 272.15272949 296.55224609 272.75488281 C292.72373723 275.07150261 288.83984484 277.20855168 284.7890625 279.11328125 C280.62255877 281.17833877 276.73704003 283.82048859 272.89453125 286.4296875 C269.99801232 288.35345429 267.66150043 289.84965899 264.25 290.625 C260.82062301 289.67239528 259.87656727 287.98296005 258 285 C257.5301861 282.20682069 257.6188552 279.50963516 257.75 276.6875 C257.76804687 275.94693359 257.78609375 275.20636719 257.8046875 274.44335938 C257.85152663 272.6283429 257.92326211 270.81399834 258 269 C256.41082764 269.00138269 256.41082764 269.00138269 254.78955078 269.00279331 C229.00841987 269.02499488 203.22729019 269.04142674 177.44615173 269.05181217 C164.97858338 269.056968 152.51102133 269.06399716 140.04345703 269.07543945 C129.1764812 269.08540803 118.30950995 269.09185862 107.44252968 269.09408849 C101.68881285 269.0953919 95.93510911 269.0984544 90.18139648 269.10573006 C84.7642462 269.11252453 79.34711439 269.11460997 73.92996025 269.11310768 C71.94342384 269.11338247 69.9568868 269.11536723 67.97035408 269.11920547 C65.2537324 269.12419625 62.53718 269.12297845 59.82055664 269.12025452 C58.64737129 269.12462378 58.64737129 269.12462378 57.45048523 269.12908131 C50.64336005 269.11069125 44.05691421 268.74590728 37.6875 266.125 C36.86636719 265.79757812 36.04523438 265.47015625 35.19921875 265.1328125 C32.96918837 263.984129 31.71703927 262.79635902 30 261 C28.79638912 260.22937976 27.56625928 259.49851923 26.3125 258.8125 C25.219375 258.214375 24.12625 257.61625 23 257 C23 256.34 23 255.68 23 255 C22.34 255 21.68 255 21 255 C21 254.34 21 253.68 21 253 C20.34 253 19.68 253 19 253 C19 252.34 19 251.68 19 251 C18.34 251 17.68 251 17 251 C15.7109375 249.5390625 15.7109375 249.5390625 14.375 247.625 C13.92898437 246.99851562 13.48296875 246.37203125 13.0234375 245.7265625 C12 244 12 244 12 242 C11.34 242 10.68 242 10 242 C1.16877943 224.9166553 -1.63954513 206.87079221 2 188 C2.33 187.67 2.66 187.34 3 187 C3.12375 185.9275 3.2475 184.855 3.375 183.75 C3.99885062 180.00689625 4.9727497 178.1253442 7 175 C7.69579454 172.80869466 7.69579454 172.80869466 8 171 C8.66 171 9.32 171 10 171 C10.10054687 170.26652344 10.20109375 169.53304687 10.3046875 168.77734375 C12.6359786 159.46527651 22.27468309 152.56913069 30.0625 147.8125 C31.7056887 146.87037235 33.35120801 145.93228675 35 145 C35.928125 144.4225 36.85625 143.845 37.8125 143.25 C47.57536909 139.42142388 58.50403046 139.72198378 68.83203125 139.8046875 C70.20350434 139.80843023 71.57498016 139.81127122 72.94645691 139.81326294 C76.50887796 139.82080043 80.07112883 139.84036033 83.63348389 139.8626709 C87.28753357 139.88334589 90.94161148 139.89231034 94.59570312 139.90234375 C101.73053723 139.92361852 108.86525734 139.95763051 116 140 C115.979375 139.23300781 115.95875 138.46601563 115.9375 137.67578125 C116.00703424 134.69884672 116.77079637 132.68888293 118 130 C118.66 130 119.32 130 120 130 C120.04125 129.34 120.0825 128.68 120.125 128 C122.59000818 119.54854338 129.57293789 114.15300218 137 110 C145.98250531 106.06666693 155.76646414 105.63124306 165 109 C176.49712765 113.8131735 184.44992753 120.60891961 189.375 132.25 C189.98787888 134.94666707 190.04616149 137.24877529 190 140 C199.05030982 139.98505312 208.09999468 139.94313993 217.15000534 139.86790943 C221.35349241 139.83379046 225.55662188 139.80855318 229.76025391 139.80444336 C233.82603839 139.80012767 237.89101825 139.77139837 241.9565506 139.72656822 C243.49842877 139.71369666 245.04040375 139.70924837 246.5823288 139.71384621 C258.54960101 139.74118961 269.55709546 138.24258581 278.5 129.4375 C279.2734375 128.69371094 280.046875 127.94992188 280.84375 127.18359375 C281.91109375 126.10271484 281.91109375 126.10271484 283 125 C283.67804688 124.38898438 284.35609375 123.77796875 285.0546875 123.1484375 C287.5114218 120.43517673 289.04609405 117.45359969 290.625 114.1875 C290.9240625 113.59646484 291.223125 113.00542969 291.53125 112.39648438 C295.90067434 103.53196641 296.3108504 95.85092226 296.25 86.125 C296.25773437 84.89652344 296.26546875 83.66804688 296.2734375 82.40234375 C296.24025502 66.92271881 292.12899253 54.50494736 281.2421875 43.00390625 C269.65263359 32.64599483 257.83961614 30.85561638 242.87887573 30.84609985 C241.58820716 30.83952647 241.58820716 30.83952647 240.27146447 30.8328203 C237.41909235 30.81957968 234.566751 30.81328731 231.71435547 30.80712891 C229.65692002 30.79921694 227.59948592 30.79094734 225.54205322 30.78234863 C218.8171112 30.75627812 212.09216336 30.74084659 205.3671875 30.7265625 C203.04629641 30.72119864 200.72540534 30.71582113 198.40451431 30.71043015 C188.75347621 30.68883286 179.10243969 30.67009411 169.45138359 30.65880775 C155.64103836 30.64254639 141.83097334 30.60927931 128.02073371 30.55240691 C118.2947975 30.51372163 108.56893633 30.49417734 98.84292519 30.48888719 C93.03893287 30.48523491 87.23524048 30.47322395 81.43133163 30.44078445 C75.97615909 30.41072515 70.52146845 30.40438455 65.06623077 30.41616821 C63.06676817 30.41638905 61.06728329 30.40807566 59.0678978 30.39051437 C56.33373876 30.36780879 53.60132588 30.37612353 50.86715698 30.39199829 C50.08018177 30.3781162 49.29320656 30.36423412 48.48238361 30.34993136 C42.44342844 30.436058 38.83551639 32.52914547 34 36 C32.36476705 36.91503985 30.7199188 37.81328742 29.0625 38.6875 C25.53368351 40.56821566 22.09202163 42.53948008 18.69140625 44.640625 C17.93786865 45.10122314 17.18433105 45.56182129 16.40795898 46.03637695 C14.90656376 46.95782997 13.4122807 47.8909911 11.92602539 48.83666992 C6.70402132 52.02194104 6.70402132 52.02194104 3.1171875 51.91015625 C1 51 1 51 -1 49 C-1.24723816 47.07803345 -1.24723816 47.07803345 -1.24291992 44.70556641 C-1.24599655 43.8176944 -1.24907318 42.92982239 -1.25224304 42.01504517 C-1.24505753 41.05359589 -1.23787201 40.09214661 -1.23046875 39.1015625 C-1.23001053 38.11505707 -1.22955231 37.12855164 -1.2290802 36.1121521 C-1.22605527 34.02234701 -1.21816182 31.93254422 -1.20581055 29.84277344 C-1.18761438 26.64510087 -1.18530044 23.44771881 -1.18554688 20.25 C-1.18062934 18.22135166 -1.1748 16.19270529 -1.16796875 14.1640625 C-1.16685593 13.20666168 -1.1657431 12.24926086 -1.16459656 11.2628479 C-1.15821671 10.36867157 -1.15183685 9.47449524 -1.14526367 8.55322266 C-1.14145187 7.76871735 -1.13764008 6.98421204 -1.13371277 6.17593384 C-1.00014307 4.00232829 -0.59797394 2.08949821 0 0 Z M8 12 C8 20.91 8 29.82 8 39 C15.16656572 36.31272915 15.16656572 36.31272915 21.125 32.33984375 C24.54921302 29.8929582 28.29075711 27.97658068 32 26 C27.11298914 21.61854199 19.75172106 16 13 16 C12.34 14.68 11.68 13.36 11 12 C10.01 12 9.02 12 8 12 Z M129.875 127.1875 C124.94636475 134.58045288 123.05024351 143.96033815 124.6875 152.6875 C125.74818882 156.80037501 127.30786032 159.71895476 130 163 C130.66 163 131.32 163 132 163 C132.2784375 163.86625 132.2784375 163.86625 132.5625 164.75 C135.25324734 168.96160452 139.79950515 170.54698308 144.3125 172.25 C148.96284886 173.19583367 153.27596831 173.22203715 158 173 C159.175625 172.95875 160.35125 172.9175 161.5625 172.875 C168.57669717 171.08956799 173.52004581 167.31727661 177.4375 161.25 C182.24270939 152.36036263 182.53099315 144.68069737 180.3125 135 C177.01642626 127.46611717 171.87192135 121.97115996 164.5625 118.25 C151.42211438 113.74543599 139.237476 117.54965706 129.875 127.1875 Z M268 251 C268 259.91 268 268.82 268 278 C272.24634667 276.30146133 276.10964919 274.38017894 280.0625 272.125 C280.67416016 271.78597656 281.28582031 271.44695312 281.91601562 271.09765625 C285.44172619 269.0927657 288.28639127 267.01812841 291 264 C288.30128957 260.74567271 284.74406361 259.25694788 281 257.5 C277.17209519 255.7037086 273.97660275 254.05101782 271 251 C270.01 251 269.02 251 268 251 Z " fill="#314158" transform="translate(94,61)"/>
<path d="M0 0 C2.4375 1.3125 2.4375 1.3125 3.3125 3.3125 C3.4375 5.3125 3.4375 5.3125 2.4375 7.3125 C1.7775 7.3125 1.1175 7.3125 0.4375 7.3125 C0.1796875 7.89515625 -0.078125 8.4778125 -0.34375 9.078125 C-1.66084017 11.4927903 -3.11338384 13.12990177 -5.0625 15.0625 C-5.97515625 15.98289063 -5.97515625 15.98289063 -6.90625 16.921875 C-8.5625 18.3125 -8.5625 18.3125 -10.5625 18.3125 C-10.5625 18.9725 -10.5625 19.6325 -10.5625 20.3125 C-11.2225 20.3125 -11.8825 20.3125 -12.5625 20.3125 C-12.871875 21.1478125 -12.871875 21.1478125 -13.1875 22 C-15.11935894 25.24903549 -17.51229805 27.1163546 -20.5625 29.3125 C-24.5625 29.3125 -24.5625 29.3125 -26.88671875 27.046875 C-27.66660156 26.06203125 -28.44648438 25.0771875 -29.25 24.0625 C-30.03761719 23.08796875 -30.82523438 22.1134375 -31.63671875 21.109375 C-33.31793436 18.66769067 -34.28180591 17.22151148 -34.5625 14.3125 C-33.625 12.0625 -33.625 12.0625 -32.5625 10.3125 C-29.5925 10.8075 -29.5925 10.8075 -26.5625 11.3125 C-26.2325 12.3025 -25.9025 13.2925 -25.5625 14.3125 C-24.9025 14.3125 -24.2425 14.3125 -23.5625 14.3125 C-23.2325 14.9725 -22.9025 15.6325 -22.5625 16.3125 C-21.5725 16.3125 -20.5825 16.3125 -19.5625 16.3125 C-18.20422029 14.66610035 -16.86995749 12.99954193 -15.5625 11.3125 C-14.9025 11.3125 -14.2425 11.3125 -13.5625 11.3125 C-13.5625 10.6525 -13.5625 9.9925 -13.5625 9.3125 C-12.9025 9.3125 -12.2425 9.3125 -11.5625 9.3125 C-11.5625 8.6525 -11.5625 7.9925 -11.5625 7.3125 C-10.9025 7.3125 -10.2425 7.3125 -9.5625 7.3125 C-9.5625 6.6525 -9.5625 5.9925 -9.5625 5.3125 C-8.9025 5.3125 -8.2425 5.3125 -7.5625 5.3125 C-7.5625 4.6525 -7.5625 3.9925 -7.5625 3.3125 C-6.9025 3.3125 -6.2425 3.3125 -5.5625 3.3125 C-5.2325 2.3225 -4.9025 1.3325 -4.5625 0.3125 C-2.5625 -0.6875 -2.5625 -0.6875 0 0 Z " fill="#314158" transform="translate(262.5625,191.6875)"/>
</svg>
